<svg xmlns="http://www.w3.org/2000/svg" viewBox="0 0 64 80" x="0px" y="0px"><title>menu, more, strip, category</title><g data-name="04"><path d="M9,21H55a4,4,0,0,0,0-8H9a4,4,0,0,0,0,8Z"/><path d="M55,28H9a4,4,0,0,0,0,8H55a4,4,0,0,0,0-8Z"/><path d="M55,43H9a4,4,0,0,0,0,8H55a4,4,0,0,0,0-8Z"/></g><text x="0" y="79" fill="#000000" font-size="5px" font-weight="bold" font-family="'Helvetica Neue', Helvetica, Arial-Unicode, Arial, Sans-serif">Created by Azmi Anshori</text><text x="0" y="84" fill="#000000" font-size="5px" font-weight="bold" font-family="'Helvetica Neue', Helvetica, Arial-Unicode, Arial, Sans-serif">from the Noun Project</text></svg>